<svg width="664.4px" height="126.839990234375px" xmlns="http://www.w3.org/2000/svg" viewBox="-82.19999999999999 11.580004882812503 664.4 126.839990234375" style="background: rgba(0, 0, 0, 0) none repeat scroll 0% 0%;" preserveAspectRatio="xMidYMid"><defs><filter id="editing-extrusion" x="-100%" y="-100%" width="300%" height="300%"><feFlood result="color1" flood-color="#444444"></feFlood><feConvolveMatrix order="8,8" divisor="1" kernelMatrix="1 0 0 0 0 0 0 0 0 1 0 0 0 0 0 0 0 0 1 0 0 0 0 0 0 0 0 1 0 0 0 0 0 0 0 0 1 0 0 0 0 0 0 0 0 1 0 0 0 0 0 0 0 0 1 0 0 0 0 0 0 0 0 1" in="SourceAlpha" result="extrude"></feConvolveMatrix><feComposite in="color1" in2="extrude" result="comp-extrude" operator="in"></feComposite><feOffset dx="4" dy="4" in="comp-extrude" result="offset-extrude"></feOffset><feMerge><feMergeNode in="offset-extrude"></feMergeNode><feMergeNode in="SourceGraphic"></feMergeNode></feMerge></filter></defs><g filter="url(#editing-extrusion)"><g transform="translate(11.750001907348633, 104.76499938964844)"><path d="M5.75-44.81L12.16-44.81L12.16 0L5.75 0L5.75-44.81ZM63.47-27.13L49.41-27.13L49.41 0L43.25 0L43.25-27.13L29.16-27.13L29.16 0L23.03 0L23.03-33.28L29.16-33.28L29.16-27.41L29.16-27.41Q29.22-28.63 29.72-29.70L29.72-29.70L29.72-29.70Q30.22-30.78 31.05-31.58L31.05-31.58L31.05-31.58Q31.88-32.38 32.97-32.83L32.97-32.83L32.97-32.83Q34.06-33.28 35.31-33.28L35.31-33.28L43.25-33.28L43.25-33.28Q44.47-33.28 45.56-32.83L45.56-32.83L45.56-32.83Q46.66-32.38 47.50-31.58L47.50-31.58L47.50-31.58Q48.34-30.78 48.86-29.70L48.86-29.70L48.86-29.70Q49.38-28.63 49.41-27.41L49.41-27.41L49.41-27.41Q49.47-28.63 49.95-29.70L49.95-29.70L49.95-29.70Q50.44-30.78 51.27-31.58L51.27-31.58L51.27-31.58Q52.09-32.38 53.19-32.83L53.19-32.83L53.19-32.83Q54.28-33.28 55.53-33.28L55.53-33.28L63.47-33.28L63.47-33.28Q64.75-33.28 65.88-32.80L65.88-32.80L65.88-32.80Q67-32.31 67.83-31.48L67.83-31.48L67.83-31.48Q68.66-30.66 69.14-29.53L69.14-29.53L69.14-29.53Q69.63-28.41 69.63-27.13L69.63-27.13L69.63 0L63.47 0L63.47-27.13ZM79.88-6.16L79.88-14.53L79.88-14.53Q79.88-15.81 80.36-16.92L80.36-16.92L80.36-16.92Q80.84-18.03 81.67-18.88L81.67-18.88L81.67-18.88Q82.50-19.72 83.63-20.20L83.63-20.20L83.63-20.20Q84.75-20.69 86-20.69L86-20.69L101.88-20.69L101.88-27.13L81.78-27.13L81.78-33.28L101.88-33.28L101.88-33.28Q103.16-33.28 104.28-32.80L104.28-32.80L104.28-32.80Q105.41-32.31 106.23-31.48L106.23-31.48L106.23-31.48Q107.06-30.66 107.55-29.53L107.55-29.53L107.55-29.53Q108.03-28.41 108.03-27.13L108.03-27.13L108.03 0L101.88 0L101.88-5.63L101.88-5.63Q101.78-4.47 101.25-3.44L101.25-3.44L101.25-3.44Q100.72-2.41 99.89-1.64L99.89-1.64L99.89-1.64Q99.06-0.88 98-0.44L98-0.44L98-0.44Q96.94 0 95.75 0L95.75 0L86 0L86 0Q84.75 0 83.63-0.48L83.63-0.48L83.63-0.48Q82.50-0.97 81.67-1.80L81.67-1.80L81.67-1.80Q80.84-2.63 80.36-3.75L80.36-3.75L80.36-3.75Q79.88-4.88 79.88-6.16L79.88-6.16ZM86-14.53L86-6.16L101.88-6.16L101.88-14.53L86-14.53ZM118.28-7.44L118.28-27.13L118.28-27.13Q118.28-28.41 118.77-29.53L118.77-29.53L118.77-29.53Q119.25-30.66 120.08-31.48L120.08-31.48L120.08-31.48Q120.91-32.31 122.03-32.80L122.03-32.80L122.03-32.80Q123.16-33.28 124.41-33.28L124.41-33.28L135.44-33.28L135.44-33.28Q136.66-33.28 137.75-32.83L137.75-32.83L137.75-32.83Q138.84-32.38 139.67-31.58L139.67-31.58L139.67-31.58Q140.50-30.78 141.02-29.70L141.02-29.70L141.02-29.70Q141.53-28.63 141.56-27.41L141.56-27.41L141.56-33.28L147.72-33.28L147.72 7.28L147.72 7.28Q147.72 8.56 147.23 9.69L147.23 9.69L147.23 9.69Q146.75 10.81 145.92 11.64L145.92 11.64L145.92 11.64Q145.09 12.47 143.97 12.95L143.97 12.95L143.97 12.95Q142.84 13.44 141.56 13.44L141.56 13.44L122.13 13.44L122.13 7.28L141.56 7.28L141.56-1.28L124.41-1.28L124.41-1.28Q123.16-1.28 122.03-1.77L122.03-1.77L122.03-1.77Q120.91-2.25 120.08-3.08L120.08-3.08L120.08-3.08Q119.25-3.91 118.77-5.03L118.77-5.03L118.77-5.03Q118.28-6.16 118.28-7.44L118.28-7.44ZM124.41-7.44L141.56-7.44L141.56-27.13L124.41-27.13L124.41-7.44ZM186.13-27.13L186.13-13.50L164.09-13.50L164.09-6.16L186.13-6.16L186.13 0L164.09 0L164.09 0Q162.84 0 161.72-0.48L161.72-0.48L161.72-0.48Q160.59-0.97 159.77-1.80L159.77-1.80L159.77-1.80Q158.94-2.63 158.45-3.75L158.45-3.75L158.45-3.75Q157.97-4.88 157.97-6.16L157.97-6.16L157.97-27.13L157.97-27.13Q157.97-28.41 158.45-29.53L158.45-29.53L158.45-29.53Q158.94-30.66 159.77-31.48L159.77-31.48L159.77-31.48Q160.59-32.31 161.72-32.80L161.72-32.80L161.72-32.80Q162.84-33.28 164.09-33.28L164.09-33.28L179.97-33.28L179.97-33.28Q181.25-33.28 182.38-32.80L182.38-32.80L182.38-32.80Q183.50-32.31 184.33-31.48L184.33-31.48L184.33-31.48Q185.16-30.66 185.64-29.53L185.64-29.53L185.64-29.53Q186.13-28.41 186.13-27.13L186.13-27.13ZM179.97-27.13L164.09-27.13L164.09-19.66L179.97-19.66L179.97-27.13ZM195.72-6.16L216.47-6.16L216.47-13.88L201.88-13.88L201.88-13.88Q200.59-13.88 199.47-14.36L199.47-14.36L199.47-14.36Q198.34-14.84 197.52-15.67L197.52-15.67L197.52-15.67Q196.69-16.50 196.20-17.63L196.20-17.63L196.20-17.63Q195.72-18.75 195.72-20.03L195.72-20.03L195.72-27.13L195.72-27.13Q195.72-28.41 196.20-29.53L196.20-29.53L196.20-29.53Q196.69-30.66 197.52-31.48L197.52-31.48L197.52-31.48Q198.34-32.31 199.47-32.80L199.47-32.80L199.47-32.80Q200.59-33.28 201.88-33.28L201.88-33.28L221.34-33.28L221.34-27.13L201.88-27.13L201.88-20.03L216.47-20.03L216.47-20.03Q217.75-20.03 218.86-19.55L218.86-19.55L218.86-19.55Q219.97-19.06 220.81-18.23L220.81-18.23L220.81-18.23Q221.66-17.41 222.14-16.28L222.14-16.28L222.14-16.28Q222.63-15.16 222.63-13.88L222.63-13.88L222.63-6.16L222.63-6.16Q222.63-4.88 222.14-3.75L222.14-3.75L222.14-3.75Q221.66-2.63 220.81-1.80L220.81-1.80L220.81-1.80Q219.97-0.97 218.86-0.48L218.86-0.48L218.86-0.48Q217.75 0 216.47 0L216.47 0L195.72 0L195.72-6.16ZM252.03-6.41L252.03-38.41L252.03-38.41Q252.03-39.72 252.53-40.89L252.53-40.89L252.53-40.89Q253.03-42.06 253.91-42.92L253.91-42.92L253.91-42.92Q254.78-43.78 255.95-44.30L255.95-44.30L255.95-44.30Q257.13-44.81 258.44-44.81L258.44-44.81L282.75-44.81L282.75-44.81Q284.06-44.81 285.23-44.30L285.23-44.30L285.23-44.30Q286.41-43.78 287.28-42.92L287.28-42.92L287.28-42.92Q288.16-42.06 288.66-40.89L288.66-40.89L288.66-40.89Q289.16-39.72 289.16-38.41L289.16-38.41L289.16-32.63L282.75-32.63L282.75-38.41L258.44-38.41L258.44-6.41L282.75-6.41L282.75-17.28L270.59-17.28L270.59-23.69L289.16-23.69L289.16-6.41L289.16-6.41Q289.16-5.09 288.66-3.92L288.66-3.92L288.66-3.92Q288.16-2.75 287.28-1.88L287.28-1.88L287.28-1.88Q286.41-1 285.23-0.50L285.23-0.50L285.23-0.50Q284.06 0 282.75 0L282.75 0L258.44 0L258.44 0Q257.13 0 255.95-0.50L255.95-0.50L255.95-0.50Q254.78-1 253.91-1.88L253.91-1.88L253.91-1.88Q253.03-2.75 252.53-3.92L252.53-3.92L252.53-3.92Q252.03-5.09 252.03-6.41L252.03-6.41ZM300.03-6.16L300.03-14.53L300.03-14.53Q300.03-15.81 300.52-16.92L300.52-16.92L300.52-16.92Q301-18.03 301.83-18.88L301.83-18.88L301.83-18.88Q302.66-19.72 303.78-20.20L303.78-20.20L303.78-20.20Q304.91-20.69 306.16-20.69L306.16-20.69L322.03-20.69L322.03-27.13L301.94-27.13L301.94-33.28L322.03-33.28L322.03-33.28Q323.31-33.28 324.44-32.80L324.44-32.80L324.44-32.80Q325.56-32.31 326.39-31.48L326.39-31.48L326.39-31.48Q327.22-30.66 327.70-29.53L327.70-29.53L327.70-29.53Q328.19-28.41 328.19-27.13L328.19-27.13L328.19 0L322.03 0L322.03-5.63L322.03-5.63Q321.94-4.47 321.41-3.44L321.41-3.44L321.41-3.44Q320.88-2.41 320.05-1.64L320.05-1.64L320.05-1.64Q319.22-0.88 318.16-0.44L318.16-0.44L318.16-0.44Q317.09 0 315.91 0L315.91 0L306.16 0L306.16 0Q304.91 0 303.78-0.48L303.78-0.48L303.78-0.48Q302.66-0.97 301.83-1.80L301.83-1.80L301.83-1.80Q301-2.63 300.52-3.75L300.52-3.75L300.52-3.75Q300.03-4.88 300.03-6.16L300.03-6.16ZM306.16-14.53L306.16-6.16L322.03-6.16L322.03-14.53L306.16-14.53ZM338.44-46.09L344.56-46.09L344.56 0L338.44 0L338.44-46.09ZM354.81-46.09L360.94-46.09L360.94 0L354.81 0L354.81-46.09ZM399.34-27.13L399.34-13.50L377.31-13.50L377.31-6.16L399.34-6.16L399.34 0L377.31 0L377.31 0Q376.06 0 374.94-0.48L374.94-0.48L374.94-0.48Q373.81-0.97 372.98-1.80L372.98-1.80L372.98-1.80Q372.16-2.63 371.67-3.75L371.67-3.75L371.67-3.75Q371.19-4.88 371.19-6.16L371.19-6.16L371.19-27.13L371.19-27.13Q371.19-28.41 371.67-29.53L371.67-29.53L371.67-29.53Q372.16-30.66 372.98-31.48L372.98-31.48L372.98-31.48Q373.81-32.31 374.94-32.80L374.94-32.80L374.94-32.80Q376.06-33.28 377.31-33.28L377.31-33.28L393.19-33.28L393.19-33.28Q394.47-33.28 395.59-32.80L395.59-32.80L395.59-32.80Q396.72-32.31 397.55-31.48L397.55-31.48L397.55-31.48Q398.38-30.66 398.86-29.53L398.86-29.53L398.86-29.53Q399.34-28.41 399.34-27.13L399.34-27.13ZM393.19-27.13L377.31-27.13L377.31-19.66L393.19-19.66L393.19-27.13ZM428.41-27.13L415.72-27.13L415.72 0L409.59 0L409.59-33.28L415.72-33.28L415.72-27.41L415.72-27.41Q415.78-28.63 416.28-29.70L416.28-29.70L416.28-29.70Q416.78-30.78 417.61-31.58L417.61-31.58L417.61-31.58Q418.44-32.38 419.53-32.83L419.53-32.83L419.53-32.83Q420.63-33.28 421.88-33.28L421.88-33.28L428.41-33.28L428.41-33.28Q429.69-33.28 430.80-32.80L430.80-32.80L430.80-32.80Q431.91-32.31 432.75-31.48L432.75-31.48L432.75-31.48Q433.59-30.66 434.08-29.53L434.08-29.53L434.08-29.53Q434.56-28.41 434.56-27.13L434.56-27.13L434.56-21.50L428.41-21.50L428.41-27.13ZM450.59 13.44L444.47 13.44L451.44-3L438.38-33.28L444.84-33.28L454.56-10.38L464.28-33.28L470.75-33.28L450.59 13.44Z" fill="#2d7e68"></path></g></g><style>text {
  font-size: 64px;
  font-family: Arial Black;
  dominant-baseline: central;
  text-anchor: middle;
}</style></svg>